<svg width="16" height="17" viewBox="0 0 16 17" fill="none" xmlns="http://www.w3.org/2000/svg">
<path d="M11.9998 7.96667C11.9998 7.04725 11.5784 6.16549 10.8282 5.51536C10.0781 4.86524 9.06068 4.5 7.99981 4.5C6.93895 4.5 5.92153 4.86524 5.17139 5.51536C4.42124 6.16549 3.99981 7.04725 3.99981 7.96667C3.99981 9.48787 3.62257 10.6004 3.15186 11.3965C2.61537 12.3037 2.34713 12.7574 2.35772 12.8658C2.36984 12.9897 2.39216 13.0289 2.49271 13.1024C2.58059 13.1667 3.02215 13.1667 3.90527 13.1667H12.0944C12.9775 13.1667 13.419 13.1667 13.5069 13.1024C13.6075 13.0289 13.6298 12.9897 13.6419 12.8658C13.6525 12.7574 13.3843 12.3037 12.8478 11.3965C12.3771 10.6004 11.9998 9.48787 11.9998 7.96667Z" fill="#667085"/>
<path d="M9.99981 13.1667C9.99981 14.2712 9.10438 15.1667 7.99981 15.1667C6.89524 15.1667 5.99981 14.2712 5.99981 13.1667M9.19748 4.65904C9.48781 4.35909 9.66648 3.95041 9.66648 3.5C9.66648 2.57953 8.92029 1.83333 7.99981 1.83333C7.07934 1.83333 6.33315 2.57953 6.33315 3.5C6.33315 3.95041 6.51182 4.35909 6.80214 4.65904M11.9998 7.96667C11.9998 7.04725 11.5784 6.16549 10.8282 5.51536C10.0781 4.86524 9.06068 4.5 7.99981 4.5C6.93895 4.5 5.92153 4.86524 5.17139 5.51536C4.42124 6.16549 3.99981 7.04725 3.99981 7.96667C3.99981 9.48787 3.62257 10.6004 3.15186 11.3965C2.61537 12.3037 2.34713 12.7574 2.35772 12.8658C2.36984 12.9897 2.39216 13.0289 2.49271 13.1024C2.58059 13.1667 3.02215 13.1667 3.90527 13.1667H12.0944C12.9775 13.1667 13.419 13.1667 13.5069 13.1024C13.6075 13.0289 13.6298 12.9897 13.6419 12.8658C13.6525 12.7574 13.3843 12.3037 12.8478 11.3965C12.3771 10.6004 11.9998 9.48787 11.9998 7.96667Z" stroke="#667085" stroke-linecap="round" stroke-linejoin="round"/>
</svg>
